<?xml version="1.0" encoding="utf-8"?>
<svg xmlns="http://www.w3.org/2000/svg" viewBox="0 0 50 50" width="500" height="500">
  <path d="M24.970703 1.9726562 A 2.0002 2.0002 0 0 0 23 4L23 7.5371094L21.333984 5.9433594 A 2.0002 2.0002 0 1 0 18.570312 8.8339844L23 13.072266L23 13.601562L19.962891 16.507812L15.728516 17.59375L15.126953 17.261719L13.507812 11.478516 A 2.0002 2.0002 0 0 0 11.597656 9.9902344 A 2.0002 2.0002 0 0 0 9.65625 12.556641L10.214844 14.548828L6.96875 12.755859 A 2.0002 2.0002 0 0 0 6.0136719 12.494141 A 2.0002 2.0002 0 0 0 5.0332031 16.257812L8.0488281 17.923828L6.0644531 18.431641 A 2.0002 2.0002 0 1 0 7.0566406 22.306641L13.15625 20.744141L13.755859 21.074219L14.855469 24.998047L13.753906 28.925781L13.15625 29.255859L7.0546875 27.691406 A 2.0002 2.0002 0 0 0 6.4589844 27.623047 A 2.0002 2.0002 0 0 0 6.0605469 31.566406L8.0488281 32.076172L5.0332031 33.742188 A 2.0006259 2.0006259 0 1 0 6.96875 37.244141L10.214844 35.451172L9.6542969 37.451172 A 2.0002 2.0002 0 1 0 13.505859 38.529297L15.126953 32.738281L15.730469 32.404297L19.960938 33.490234L23 36.398438L23 36.927734L18.546875 41.189453 A 2.0002 2.0002 0 1 0 21.3125 44.078125L23 42.464844L23 46 A 2.0002 2.0002 0 1 0 27 46L27 42.464844L28.689453 44.080078 A 2.0002 2.0002 0 1 0 31.453125 41.189453L27 36.927734L27 36.398438L30.039062 33.492188L34.273438 32.40625L34.873047 32.738281L36.507812 38.578125 A 2.0002 2.0002 0 1 0 40.359375 37.5L39.785156 35.451172L43.033203 37.244141 A 2.0002 2.0002 0 1 0 44.966797 33.742188L41.951172 32.076172L43.960938 31.560547 A 2.0002 2.0002 0 0 0 43.501953 27.617188 A 2.0002 2.0002 0 0 0 42.96875 27.6875L36.84375 29.255859L36.244141 28.923828L35.144531 25L36.244141 21.074219L36.84375 20.744141L43.001953 22.322266 A 2.0002463 2.0002463 0 1 0 43.996094 18.447266L41.951172 17.923828L44.966797 16.257812 A 2.0002 2.0002 0 0 0 43.927734 12.496094 A 2.0002 2.0002 0 0 0 43.033203 12.755859L39.785156 14.548828L40.349609 12.535156 A 2.0002 2.0002 0 0 0 38.347656 9.9707031 A 2.0002 2.0002 0 0 0 36.498047 11.457031L34.873047 17.261719L34.271484 17.59375L30.039062 16.507812L27 13.601562L27 13.072266L31.460938 8.8046875 A 2.0002 2.0002 0 0 0 30.083984 5.3398438 A 2.0002 2.0002 0 0 0 28.695312 5.9140625L27 7.5351562L27 4 A 2.0002 2.0002 0 0 0 24.970703 1.9726562 z M 23 19.136719L23 21.609375L20.833984 20.414062L21.462891 20.251953 A 2.0002 2.0002 0 0 0 22.347656 19.759766L23 19.136719 z M 27 19.138672L27.652344 19.761719 A 2.0002 2.0002 0 0 0 28.539062 20.253906L29.164062 20.414062L27 21.609375L27 19.138672 z M 18.669922 23.789062L20.863281 25L18.669922 26.210938L18.857422 25.539062 A 2.0002 2.0002 0 0 0 18.857422 24.458984L18.669922 23.789062 z M 31.330078 23.789062L31.142578 24.460938 A 2.0002 2.0002 0 0 0 31.142578 25.539062L31.330078 26.210938L29.138672 25L31.330078 23.789062 z M 23 28.390625L23 30.859375L22.349609 30.236328 A 2.0002 2.0002 0 0 0 21.462891 29.744141L20.837891 29.583984L23 28.390625 z M 27 28.390625L29.164062 29.585938L28.539062 29.746094 A 2.0002 2.0002 0 0 0 27.652344 30.238281L27 30.861328L27 28.390625 z" fill="#5B5B5B" />
</svg>