<?xml version="1.0" encoding="utf-8"?>
<svg xmlns="http://www.w3.org/2000/svg" viewBox="0 0 80 80" width="480" height="480">
  <path d="M14 10C11.800781 10 10 11.800781 10 14L10 66C10 68.199219 11.800781 70 14 70L66 70C68.199219 70 70 68.199219 70 66L70 14C70 11.800781 68.199219 10 66 10 Z M 14 12L66 12C67.117188 12 68 12.882813 68 14L68 66C68 67.117188 67.117188 68 66 68L14 68C12.882813 68 12 67.117188 12 66L12 14C12 12.882813 12.882813 12 14 12 Z M 40 20C39.449219 20 39 20.449219 39 21C39 21.550781 39.449219 22 40 22C40.550781 22 41 21.550781 41 21C41 20.449219 40.550781 20 40 20 Z M 35.089844 20.648438C35.066406 20.648438 35.042969 20.648438 35.019531 20.652344C34.953125 20.65625 34.886719 20.664063 34.824219 20.683594C34.289063 20.828125 33.972656 21.375 34.113281 21.90625C34.257813 22.441406 34.804688 22.757813 35.339844 22.613281C35.875 22.472656 36.191406 21.925781 36.046875 21.390625C35.929688 20.957031 35.539063 20.652344 35.089844 20.648438 Z M 44.90625 20.648438C44.457031 20.652344 44.066406 20.957031 43.953125 21.390625C43.808594 21.925781 44.125 22.472656 44.65625 22.613281C45.191406 22.757813 45.738281 22.441406 45.882813 21.90625C46.027344 21.375 45.710938 20.828125 45.175781 20.683594C45.089844 20.660156 45 20.648438 44.90625 20.648438 Z M 30.476563 22.546875C30.308594 22.550781 30.144531 22.59375 30 22.679688C29.523438 22.957031 29.355469 23.566406 29.632813 24.046875C29.765625 24.273438 29.984375 24.441406 30.242188 24.511719C30.496094 24.582031 30.769531 24.546875 31 24.410156C31.230469 24.28125 31.398438 24.0625 31.464844 23.804688C31.535156 23.546875 31.5 23.273438 31.363281 23.046875C31.183594 22.726563 30.84375 22.535156 30.476563 22.546875 Z M 49.453125 22.546875C49.109375 22.5625 48.800781 22.75 48.632813 23.046875C48.355469 23.523438 48.523438 24.136719 49 24.410156C49.476563 24.6875 50.089844 24.523438 50.363281 24.046875C50.5 23.816406 50.535156 23.542969 50.464844 23.289063C50.398438 23.03125 50.230469 22.8125 50 22.679688C49.832031 22.582031 49.644531 22.539063 49.453125 22.546875 Z M 26.578125 25.5625C26.308594 25.5625 26.046875 25.667969 25.859375 25.859375C25.46875 26.246094 25.46875 26.882813 25.859375 27.269531C26.246094 27.660156 26.882813 27.660156 27.269531 27.269531C27.660156 26.882813 27.660156 26.246094 27.269531 25.859375C27.085938 25.671875 26.839844 25.566406 26.578125 25.5625 Z M 53.449219 25.5625C53.179688 25.558594 52.917969 25.664063 52.726563 25.859375C52.335938 26.246094 52.335938 26.882813 52.726563 27.269531C53.117188 27.660156 53.75 27.660156 54.140625 27.269531C54.53125 26.882813 54.53125 26.246094 54.140625 25.859375C53.957031 25.671875 53.710938 25.570313 53.449219 25.5625 Z M 56.425781 29.5C56.261719 29.503906 56.097656 29.550781 55.953125 29.632813C55.722656 29.765625 55.554688 29.984375 55.484375 30.242188C55.417969 30.496094 55.453125 30.769531 55.585938 31C55.71875 31.230469 55.9375 31.398438 56.195313 31.464844C56.449219 31.535156 56.722656 31.5 56.953125 31.363281C57.429688 31.089844 57.59375 30.476563 57.316406 30C57.136719 29.683594 56.792969 29.492188 56.425781 29.5 Z M 23.496094 29.5C23.15625 29.519531 22.847656 29.707031 22.675781 30C22.542969 30.230469 22.507813 30.503906 22.578125 30.757813C22.648438 31.015625 22.816406 31.234375 23.046875 31.367188C23.523438 31.644531 24.132813 31.476563 24.410156 31C24.6875 30.523438 24.523438 29.910156 24.046875 29.636719C23.878906 29.539063 23.6875 29.492188 23.496094 29.5 Z M 21.636719 34.082031C21.1875 34.085938 20.796875 34.390625 20.679688 34.824219C20.535156 35.359375 20.851563 35.90625 21.386719 36.046875C21.921875 36.191406 22.46875 35.875 22.609375 35.34375C22.753906 34.808594 22.4375 34.261719 21.90625 34.117188C21.816406 34.09375 21.726563 34.082031 21.636719 34.082031 Z M 58.359375 34.082031C58.335938 34.082031 58.3125 34.085938 58.289063 34.085938C58.222656 34.089844 58.15625 34.101563 58.09375 34.121094C57.835938 34.1875 57.617188 34.355469 57.484375 34.585938C57.351563 34.8125 57.316406 35.085938 57.386719 35.34375C57.453125 35.601563 57.621094 35.820313 57.851563 35.953125C58.082031 36.085938 58.355469 36.121094 58.609375 36.050781C59.144531 35.90625 59.460938 35.359375 59.316406 34.828125C59.203125 34.390625 58.8125 34.089844 58.359375 34.082031 Z M 31 36C28.800781 36 27 37.800781 27 40C27 42.199219 28.800781 44 31 44C33.199219 44 35 42.199219 35 40C35 37.800781 33.199219 36 31 36 Z M 49 36C46.800781 36 45 37.800781 45 40C45 42.199219 46.800781 44 49 44C51.199219 44 53 42.199219 53 40C53 37.800781 51.199219 36 49 36 Z M 31 38C32.117188 38 33 38.882813 33 40C33 41.117188 32.117188 42 31 42C29.882813 42 29 41.117188 29 40C29 38.882813 29.882813 38 31 38 Z M 49 38C50.117188 38 51 38.882813 51 40C51 41.117188 50.117188 42 49 42C47.882813 42 47 41.117188 47 40C47 38.882813 47.882813 38 49 38 Z M 21 39C20.449219 39 20 39.449219 20 40C20 40.550781 20.449219 41 21 41C21.550781 41 22 40.550781 22 40C22 39.449219 21.550781 39 21 39 Z M 59 39C58.449219 39 58 39.449219 58 40C58 40.550781 58.449219 41 59 41C59.550781 41 60 40.550781 60 40C60 39.449219 59.550781 39 59 39 Z M 21.65625 43.917969C21.628906 43.917969 21.605469 43.917969 21.582031 43.921875C21.515625 43.925781 21.453125 43.933594 21.386719 43.953125C20.851563 44.097656 20.535156 44.644531 20.679688 45.175781C20.824219 45.710938 21.371094 46.027344 21.90625 45.886719C22.4375 45.742188 22.753906 45.195313 22.609375 44.660156C22.496094 44.226563 22.105469 43.921875 21.65625 43.917969 Z M 58.34375 43.921875C57.890625 43.925781 57.5 44.226563 57.386719 44.660156C57.242188 45.195313 57.558594 45.742188 58.09375 45.886719C58.625 46.03125 59.171875 45.714844 59.316406 45.179688C59.460938 44.644531 59.144531 44.097656 58.609375 43.953125C58.523438 43.929688 58.433594 43.917969 58.34375 43.921875 Z M 23.519531 48.5C23.355469 48.503906 23.191406 48.550781 23.046875 48.632813C22.566406 48.910156 22.402344 49.519531 22.675781 50C22.808594 50.226563 23.027344 50.394531 23.285156 50.464844C23.542969 50.535156 23.816406 50.5 24.046875 50.363281C24.273438 50.234375 24.441406 50.015625 24.511719 49.757813C24.578125 49.5 24.542969 49.226563 24.410156 49C24.226563 48.683594 23.886719 48.492188 23.519531 48.5 Z M 56.40625 48.503906C56.066406 48.519531 55.757813 48.707031 55.585938 49C55.308594 49.480469 55.476563 50.089844 55.953125 50.367188C56.429688 50.644531 57.042969 50.480469 57.316406 50C57.59375 49.523438 57.429688 48.914063 56.953125 48.636719C56.789063 48.539063 56.597656 48.496094 56.40625 48.503906 Z M 26.578125 52.4375C26.308594 52.429688 26.046875 52.535156 25.859375 52.726563C25.667969 52.914063 25.5625 53.167969 25.5625 53.433594C25.5625 53.699219 25.667969 53.953125 25.859375 54.140625C26.246094 54.53125 26.882813 54.53125 27.269531 54.140625C27.460938 53.953125 27.566406 53.699219 27.566406 53.433594C27.566406 53.167969 27.460938 52.914063 27.269531 52.726563C27.085938 52.542969 26.839844 52.4375 26.578125 52.4375 Z M 53.449219 52.4375C53.179688 52.429688 52.917969 52.535156 52.726563 52.726563C52.539063 52.914063 52.433594 53.167969 52.433594 53.433594C52.433594 53.699219 52.539063 53.953125 52.726563 54.140625C53.117188 54.53125 53.75 54.53125 54.140625 54.140625C54.328125 53.953125 54.433594 53.699219 54.433594 53.433594C54.433594 53.167969 54.328125 52.914063 54.140625 52.726563C53.957031 52.542969 53.707031 52.4375 53.449219 52.4375 Z M 49.472656 55.453125C49.308594 55.457031 49.144531 55.503906 49 55.589844C48.519531 55.863281 48.355469 56.476563 48.632813 56.953125C48.910156 57.429688 49.519531 57.59375 50 57.316406C50.476563 57.042969 50.640625 56.429688 50.363281 55.953125C50.183594 55.636719 49.839844 55.445313 49.472656 55.453125 Z M 30.453125 55.457031C30.113281 55.472656 29.804688 55.660156 29.632813 55.953125C29.5 56.183594 29.464844 56.457031 29.53125 56.714844C29.601563 56.972656 29.769531 57.191406 30 57.324219C30.476563 57.597656 31.089844 57.433594 31.363281 56.953125C31.640625 56.476563 31.476563 55.867188 31 55.589844C30.832031 55.492188 30.644531 55.449219 30.453125 55.457031 Z M 44.925781 57.355469C44.902344 57.351563 44.878906 57.355469 44.855469 57.355469C44.789063 57.359375 44.722656 57.371094 44.65625 57.390625C44.402344 57.457031 44.183594 57.625 44.050781 57.855469C43.917969 58.082031 43.878906 58.355469 43.949219 58.613281C44.019531 58.871094 44.1875 59.089844 44.414063 59.222656C44.644531 59.355469 44.917969 59.390625 45.175781 59.320313C45.710938 59.175781 46.027344 58.628906 45.882813 58.09375C45.765625 57.660156 45.375 57.359375 44.925781 57.355469 Z M 35.074219 57.355469C34.625 57.359375 34.230469 57.660156 34.113281 58.09375C33.972656 58.628906 34.289063 59.175781 34.824219 59.320313C35.355469 59.464844 35.902344 59.148438 36.046875 58.613281C36.191406 58.078125 35.875 57.53125 35.339844 57.390625C35.253906 57.367188 35.164063 57.355469 35.074219 57.355469 Z M 40 58C39.449219 58 39 58.449219 39 59C39 59.550781 39.449219 60 40 60C40.550781 60 41 59.550781 41 59C41 58.449219 40.550781 58 40 58Z" fill="#5B5B5B" />
</svg>