<?xml version="1.0" encoding="utf-8"?>
<svg xmlns="http://www.w3.org/2000/svg" viewBox="0 0 24 24" width="480" height="480">
  <path d="M16 2L16 4C18.27619 4 20 5.7238095 20 8L22 8C22 4.6761905 19.32381 2 16 2 z M 16 5L16 7C16.554545 7 17 7.4454545 17 8L19 8C19 6.3545455 17.645455 5 16 5 z M 11.849609 6C11.324609 6 10.800391 6.1996094 10.400391 6.5996094L2.5996094 14.400391C1.7996094 15.200391 1.7996094 16.500781 2.5996094 17.300781L6.6992188 21.400391C7.4992187 22.200391 8.7996094 22.200391 9.5996094 21.400391L17.400391 13.599609C18.200391 12.899609 18.200391 11.499219 17.400391 10.699219L13.300781 6.5996094C12.900781 6.1996094 12.374609 6 11.849609 6 z M 12 9C13.7 9 15 10.3 15 12C15 13.7 13.7 15 12 15C10.3 15 9 13.7 9 12C9 10.3 10.3 9 12 9 z M 12 11 A 1 1 0 0 0 11 12 A 1 1 0 0 0 12 13 A 1 1 0 0 0 13 12 A 1 1 0 0 0 12 11 z M 6 14C6.6 14 7 14.4 7 15C7 15.6 6.6 16 6 16C5.4 16 5 15.6 5 15C5 14.4 5.4 14 6 14 z M 9 17C9.6 17 10 17.4 10 18C10 18.6 9.6 19 9 19C8.4 19 8 18.6 8 18C8 17.4 8.4 17 9 17 z" fill="#5B5B5B" />
</svg>