<?xml version="1.0" encoding="utf-8"?>
<svg xmlns="http://www.w3.org/2000/svg" viewBox="0 0 32 32" width="512" height="512">
  <path d="M16 3C8.828125 3 3 8.828125 3 16C3 23.171875 8.828125 29 16 29C23.171875 29 29 23.171875 29 16C29 8.828125 23.171875 3 16 3 Z M 16 4C22.632813 4 28 9.367188 28 16C28 22.632813 22.632813 28 16 28C9.367188 28 4 22.632813 4 16C4 9.367188 9.367188 4 16 4 Z M 16 6C10.488281 6 6 10.488281 6 16C6 21.511719 10.488281 26 16 26C21.511719 26 26 21.511719 26 16C26 10.488281 21.511719 6 16 6 Z M 16 8C20.429688 8 24 11.570313 24 16C24 20.429688 20.429688 24 16 24C11.570313 24 8 20.429688 8 16C8 11.570313 11.570313 8 16 8 Z M 16 10C12.699219 10 10 12.699219 10 16C10 19.300781 12.699219 22 16 22C19.300781 22 22 19.300781 22 16C22 12.699219 19.300781 10 16 10 Z M 16 12C18.222656 12 20 13.777344 20 16C20 18.222656 18.222656 20 16 20C13.777344 20 12 18.222656 12 16C12 13.777344 13.777344 12 16 12 Z M 16 14C14.894531 14 14 14.894531 14 16C14 17.105469 14.894531 18 16 18C17.105469 18 18 17.105469 18 16C18 14.894531 17.105469 14 16 14Z" fill="#5B5B5B" />
</svg>