<?xml version="1.0" encoding="utf-8"?>
<svg xmlns="http://www.w3.org/2000/svg" viewBox="0 0 26 26" width="208" height="208">
  <path d="M4 0C3.449219 0 3.109375 0.421875 3 1L0 17C0 17.550781 0.449219 18 1 18L25 18C25.550781 18 26 17.550781 26 17L23 1C22.890625 0.421875 22.550781 0 22 0 Z M 0.03125 18.46875C0.0195313 18.527344 0 18.9375 0 19L0 25C0 25.550781 0.449219 26 1 26L25 26C25.550781 26 26 25.550781 26 25L26 19C26 18.9375 25.980469 18.527344 25.96875 18.46875C25.96875 18.46875 25.765625 19 25 19L1 19C0.265625 19 0.03125 18.46875 0.03125 18.46875 Z M 2 21L3 21L3 23L5 23L5 21L6 21L6 23L8 23L8 21L9 21L9 23L11 23L11 21L12 21L12 23L14 23L14 21L15 21L15 23L17 23L17 21L18 21L18 24L2 24 Z M 22.5 21C23.328125 21 24 21.671875 24 22.5C24 23.328125 23.328125 24 22.5 24C21.671875 24 21 23.328125 21 22.5C21 21.671875 21.671875 21 22.5 21Z" fill="#5B5B5B" />
</svg>