<?xml version="1.0" encoding="utf-8"?>
<svg xmlns="http://www.w3.org/2000/svg" viewBox="0 0 24 24" width="96" height="96">
  <path d="M16.953125 2.4902344 A 1.0001 1.0001 0 0 0 16.318359 4.2324219C18.590843 6.3498281 18.590843 9.650172 16.318359 11.767578 A 1.0005381 1.0005381 0 1 0 17.681641 13.232422C20.743157 10.379828 20.743157 5.6201719 17.681641 2.7675781 A 1.0001 1.0001 0 0 0 16.953125 2.4902344 z M 5.984375 2.9863281 A 1.0001 1.0001 0 0 0 5 4L5 15C3.897 15 3 15.897 3 17L3 19C3 20.103 3.897 21 5 21L19 21C20.103 21 21 20.103 21 19L21 17C21 15.897 20.103 15 19 15L11 15L11 8 A 1.0001 1.0001 0 0 0 9.984375 6.9863281 A 1.0001 1.0001 0 0 0 9 8L9 15L7 15L7 4 A 1.0001 1.0001 0 0 0 5.984375 2.9863281 z M 13.996094 4.9902344 A 1.0001 1.0001 0 0 0 13.361328 6.7695312C13.823578 7.1527163 14 7.583216 14 8C14 8.416784 13.823578 8.8472837 13.361328 9.2304688 A 1.0001 1.0001 0 1 0 14.638672 10.769531C15.509422 10.047716 16 9.030716 16 8C16 6.969284 15.509422 5.9522837 14.638672 5.2304688 A 1.0001 1.0001 0 0 0 13.996094 4.9902344 z M 5.5 17L5.8320312 17 A 1.0001 1.0001 0 0 0 6.1582031 17L6.5 17C6.776 17 7 17.224 7 17.5L7 18.5C7 18.776 6.776 19 6.5 19L5.5 19C5.224 19 5 18.776 5 18.5L5 17.5C5 17.224 5.224 17 5.5 17 z M 9.5 17L9.8320312 17 A 1.0001 1.0001 0 0 0 10.158203 17L10.5 17C10.776 17 11 17.224 11 17.5L11 18.5C11 18.776 10.776 19 10.5 19L9.5 19C9.224 19 9 18.776 9 18.5L9 17.5C9 17.224 9.224 17 9.5 17 z M 17.5 17L18.5 17C18.776 17 19 17.224 19 17.5L19 18.5C19 18.776 18.776 19 18.5 19L17.5 19C17.224 19 17 18.776 17 18.5L17 17.5C17 17.224 17.224 17 17.5 17 z" fill="#5B5B5B" />
</svg>