<?xml version="1.0" encoding="utf-8"?>
<svg xmlns="http://www.w3.org/2000/svg" viewBox="0 0 24 24" width="96" height="96">
  <path d="M12 5C8.412 5 5.1181094 6.2603281 2.5371094 8.3613281C1.8941094 8.8843281 1.8573594 9.8573594 2.4433594 10.443359C2.9313594 10.931359 3.7038594 10.994031 4.2558594 10.582031C6.4198594 8.9640312 9.096 8 12 8C14.904 8 17.580141 8.9650312 19.744141 10.582031C20.297141 10.995031 21.068641 10.929406 21.556641 10.441406C22.142641 9.8554062 22.104891 8.882375 21.462891 8.359375C18.881891 6.259375 15.588 5 12 5 z M 12 10C9.892 10 7.9249531 10.601719 6.2519531 11.636719C5.4279531 12.145719 5.2915625 13.291562 5.9765625 13.976562C6.4735625 14.473562 7.2398437 14.539875 7.8398438 14.171875C9.0528437 13.428875 10.476 13 12 13C13.53 13 14.959781 13.433641 16.175781 14.181641C16.765781 14.544641 17.521719 14.478281 18.011719 13.988281L18.039062 13.960938C18.719062 13.280938 18.583437 12.154391 17.773438 11.650391C16.094437 10.607391 14.118 10 12 10 z M 12 15C11.094 15 10.236797 15.203406 9.4667969 15.566406C8.8387969 15.861406 8.6945469 16.694547 9.1855469 17.185547L10.966797 18.966797C11.537797 19.537797 12.462203 19.537797 13.033203 18.966797L14.814453 17.185547C15.305453 16.694547 15.161203 15.861406 14.533203 15.566406C13.763203 15.203406 12.906 15 12 15 z" fill="#5B5B5B" />
</svg>