<?xml version="1.0" encoding="utf-8"?>
<svg xmlns="http://www.w3.org/2000/svg" viewBox="0 0 24 24" width="96" height="96">
  <path d="M2.9902344 1.9902344 A 1.0001 1.0001 0 0 0 2.2929688 3.7070312L5.2167969 6.6308594C4.262179 7.1162616 3.3604268 7.6910674 2.5371094 8.3613281C1.8941094 8.8843281 1.8573594 9.8573594 2.4433594 10.443359C2.9313594 10.931359 3.7038594 10.994031 4.2558594 10.582031C5.2217162 9.8602633 6.2976688 9.2887964 7.4433594 8.8574219L9.0332031 10.447266C8.0447492 10.719669 7.1051039 11.108378 6.2519531 11.636719C5.4279531 12.145719 5.2915625 13.291563 5.9765625 13.976562C6.4735625 14.473562 7.2398437 14.541828 7.8398438 14.173828C8.9474981 13.493882 10.236983 13.09408 11.613281 13.027344L13.898438 15.3125C13.301802 15.111392 12.663931 15 12 15C11.094 15 10.236797 15.203406 9.4667969 15.566406C8.8387969 15.861406 8.6945469 16.694547 9.1855469 17.185547L10.966797 18.966797C11.537797 19.537797 12.462203 19.537797 13.033203 18.966797L14.814453 17.185547C15.002176 16.997824 15.096902 16.76001 15.107422 16.521484L20.292969 21.707031 A 1.0001 1.0001 0 1 0 21.707031 20.292969L3.7070312 2.2929688 A 1.0001 1.0001 0 0 0 2.9902344 1.9902344 z M 12 5C11.135 5 10.288844 5.0767969 9.4648438 5.2167969L12.257812 8.0117188C15.061813 8.0677187 17.645141 9.0140313 19.744141 10.582031C20.297141 10.995031 21.068641 10.929406 21.556641 10.441406C22.142641 9.8554062 22.104891 8.882375 21.462891 8.359375C18.881891 6.259375 15.588 5 12 5 z M 14.556641 10.308594L18.113281 13.865234C18.696281 13.180234 18.548437 12.132391 17.773438 11.650391C16.792437 11.041391 15.708641 10.586594 14.556641 10.308594 z" fill="#5B5B5B" />
</svg>